HIERARCHY
ROOT Hips
{
  OFFSET 0 0 0
  CHANNELS 6 Xposition Yposition Zposition Zrotation Yrotation Xrotation
  JOINT LeftThigh
  {
    OFFSET 8.759831 0 -6.164326
    CHANNELS 3 Zrotation Yrotation Xrotation
    JOINT LeftLeg
    {
      OFFSET 0 0 -44.123596
      CHANNELS 3 Zrotation Yrotation Xrotation
      JOINT LeftFoot
      {
        OFFSET 0 0 -40.997191
        CHANNELS 3 Zrotation Yrotation Xrotation
        End Site
        {
          OFFSET 0 -13.883989 -5.217556
        }
      }
    }
  }
  JOINT RightThigh
  {
    OFFSET -8.759831 0 -6.164326
    CHANNELS 3 Zrotation Yrotation Xrotation
    JOINT RightLeg
    {
      OFFSET 0 0 -44.123596
      CHANNELS 3 Zrotation Yrotation Xrotation
      JOINT RightFoot
      {
        OFFSET 0 0 -40.997191
        CHANNELS 3 Zrotation Yrotation Xrotation
        End Site
        {
          OFFSET 0 -13.883989 -5.217556
        }
      }
    }
  }
  JOINT SpineLow
  {
    OFFSET 0 0 4.91573
    CHANNELS 3 Zrotation Yrotation Xrotation
    JOINT SpineMid
    {
      OFFSET 0 0 13.436657
      CHANNELS 3 Zrotation Yrotation Xrotation
      JOINT Chest
      {
        OFFSET 0 0 13.436657
        CHANNELS 3 Zrotation Yrotation Xrotation
        JOINT LeftShoulder
        {
          OFFSET 7.865169 1.474719 9.831461
          CHANNELS 3 Zrotation Yrotation Xrotation
          JOINT LeftArm
          {
            OFFSET 9.536517 0 4.424157
            CHANNELS 3 Zrotation Yrotation Xrotation
            JOINT LeftForearm
            {
              OFFSET 0 0 26.845787
              CHANNELS 3 Zrotation Yrotation Xrotation
              JOINT LeftHand
              {
                OFFSET 0 0 26.247051
                CHANNELS 3 Zrotation Yrotation Xrotation
                End Site
                {
                  OFFSET 0 0 8.75
                }
              }
            }
          }
        }
        JOINT RightShoulder
        {
          OFFSET -7.865169 1.474719 9.831461
          CHANNELS 3 Zrotation Yrotation Xrotation
          JOINT RightArm
          {
            OFFSET -9.536517 0 4.424157
            CHANNELS 3 Zrotation Yrotation Xrotation
            JOINT RightForearm
            {
              OFFSET 0 0 -26.845787
              CHANNELS 3 Zrotation Yrotation Xrotation
              JOINT RightHand
              {
                OFFSET 0 0 -26.247051
                CHANNELS 3 Zrotation Yrotation Xrotation
                End Site
                {
                  OFFSET 0 0 -8.75
                }
              }
            }
          }
        }
        JOINT Neck
        {
          OFFSET 0 0 15.730337
          CHANNELS 3 Zrotation Yrotation Xrotation
          JOINT Head
          {
            OFFSET 0 0 11.797753
            CHANNELS 3 Zrotation Yrotation Xrotation
            End Site
            {
              OFFSET 0 0 14.747191
            }
          }
        }
      }
    }
  }
}
MOTION
Frames: 17
Frame Time: 0.01
0 98.314607 0 0 0 -90 0 0 2 0 0 2 0 0 0 0 0 2 0 0 2 0 0 0 0 0 -4 0 0 -2 0 0 6 0 0 0 0 90 -1.5 0 0 8 90 0 6 0 0 0 0 90 1.5 0 0 -8 90 -0 -6 0 0 8 0 0 -8
0 98.314606 0 -179.932415 -61.580764 90.151972 -0.407339 -1.722476 2.013401 2.113462 0.522575 2.420047 -1.58858 -0.326211 -0.258128 -2.238711 -1.037931 2.825798 0.09606 -0.222908 1.279437 1.597697 0.18979 0.226809 0.099568 0.010457 -0.095737 0.272118 0.028978 -0.261644 0.272118 0.028978 -0.261643 -0.755494 11.588421 4.157608 146.722666 64.757053 153.481166 -14.294891 -12.750682 40.344786 85.297774 4.544155 1.509994 -1.696917 -2.086439 10.076328 41.688838 67.313144 44.989743 -4.09777 4.355034 -43.059569 76.034797 -3.663948 7.687343 -2.962453 -0.375561 2.983448 -2.220061 -0.29615 2.235819
0 98.314606 0 -179.925282 -61.628861 90.105727 -0.400833 -1.728145 2.032616 2.07721 0.517674 2.45215 -1.598955 -0.330138 -0.262433 -2.284818 -1.034 2.856608 0.123299 -0.261067 1.307268 1.589697 0.197587 0.235685 0.094729 -0.019006 -0.116636 0.259022 -0.051493 -0.318886 0.259022 -0.051493 -0.318886 -0.886033 12.20279 4.51189 147.153441 63.202754 154.785696 -13.334857 -12.662501 40.48877 85.7069 4.407718 1.577657 -1.568312 -2.083873 10.703682 42.690419 65.906411 45.380029 -3.450039 4.42644 -42.411946 76.576731 -3.064881 8.142003 -3.008943 -0.280284 3.154041 -2.255327 -0.225756 2.364214
0 98.314606 0 -179.9325 -61.67878 90.047678 -0.394811 -1.727973 2.07751 2.047849 0.51082 2.48433 -1.616085 -0.332966 -0.270123 -2.341055 -1.027733 2.914871 0.153004 -0.2935 1.334149 1.58844 0.207343 0.242536 0.093558 -0.041036 -0.135913 0.255961 -0.111641 -0.371663 0.255961 -0.111641 -0.371663 -1.034164 12.726615 4.816181 147.266542 61.524694 155.838715 -12.215586 -12.639135 40.462084 86.104085 4.316131 1.585435 -1.440731 -2.097709 11.325959 43.786706 64.45932 45.780808 -2.768583 4.964308 -42.013981 76.823606 -3.08712 8.557948 -3.082143 -0.227162 3.316664 -2.310452 -0.187111 2.486424
0 98.314606 0 -179.939215 -61.714165 90.005174 -0.367245 -1.726244 2.106881 2.014329 0.504504 2.514424 -1.634628 -0.338714 -0.277189 -2.373656 -1.018694 2.953921 0.167562 -0.32991 1.36216 1.59118 0.214143 0.24858 0.100244 -0.060128 -0.157642 0.274397 -0.1637 -0.431149 0.274397 -0.1637 -0.431149 -1.168296 13.171117 5.110994 147.22725 59.741414 156.824126 -10.957998 -12.686988 40.322011 86.480908 4.266086 1.537766 -1.369143 -2.05786 11.962586 44.704199 62.967658 45.937792 -1.974794 5.711825 -41.422386 76.972219 -3.158973 9.063558 -3.179857 -0.178074 3.469859 -2.383971 -0.151621 2.60155
0 98.314606 0 -179.953509 -61.760405 89.952688 -0.347675 -1.725722 2.152917 1.980746 0.500195 2.541988 -1.654282 -0.342615 -0.281379 -2.419336 -1.00512 3.011223 0.187825 -0.365781 1.38821 1.588784 0.224304 0.257193 0.096801 -0.081385 -0.176238 0.265187 -0.221749 -0.482056 0.265187 -0.221749 -0.482057 -1.249406 13.598184 5.387885 146.947517 57.896054 157.626447 -9.691621 -12.747185 40.084411 86.821699 4.253025 1.425583 -1.218723 -2.028739 12.594008 45.833415 61.530715 46.225615 -1.143992 6.583654 -40.581455 77.025336 -3.221349 9.621112 -3.247258 -0.125356 3.606422 -2.434804 -0.113188 2.70424
0 98.314606 0 -179.966682 -61.786683 89.921015 -0.313029 -1.721862 2.177486 1.947158 0.494039 2.566995 -1.669865 -0.348227 -0.284487 -2.427572 -0.989269 3.035387 0.189331 -0.405296 1.426357 1.582458 0.230435 0.265458 0.093165 -0.100209 -0.197694 0.255477 -0.273146 -0.540766 0.255477 -0.273146 -0.540766 -1.536527 13.990464 5.674255 146.804369 56.054199 158.386939 -8.477204 -12.794698 39.80636 87.162763 4.236261 1.278205 -1.221725 -2.081146 13.217414 46.979076 60.117304 46.512713 -0.253095 7.7535 -39.692906 77.068617 -3.211908 10.134827 -3.304039 -0.069095 3.745793 -2.477716 -0.072079 2.809069
0 98.314606 0 -179.976859 -61.826015 89.867917 -0.302417 -1.719879 2.221639 1.921408 0.48779 2.590996 -1.686519 -0.353403 -0.290032 -2.464044 -0.978225 3.07511 0.206186 -0.440109 1.465841 1.577015 0.238353 0.272918 0.08877 -0.116574 -0.218338 0.243695 -0.317838 -0.597235 0.243695 -0.317838 -0.597235 -1.743069 14.445589 5.956476 146.275845 54.279247 158.851801 -7.353721 -12.85079 39.479915 87.52207 4.174604 1.172216 -1.071298 -2.125945 13.801848 48.331505 58.705175 46.944582 0.535085 8.846918 -38.548767 77.194126 -3.154794 10.526694 -3.354507 -0.030595 3.880181 -2.515806 -0.044249 2.910072
0 98.314606 0 -179.988473 -61.843093 89.832125 -0.273341 -1.712624 2.249747 1.895054 0.480079 2.613919 -1.702137 -0.362504 -0.295748 -2.47507 -0.968534 3.097822 0.207274 -0.471399 1.507225 1.582385 0.240412 0.278875 0.063146 -0.143817 -0.242335 0.174045 -0.392472 -0.662781 0.174045 -0.392472 -0.662781 -1.717309 14.965972 6.174299 145.538137 52.496867 159.17255 -6.250229 -12.95494 39.089875 87.871206 4.045117 1.147653 -1.033677 -2.136229 14.347257 49.597417 57.2292 47.281531 1.351466 10.26584 -37.489759 77.421463 -3.116033 10.796254 -3.306498 0.05859 4.007443 -2.480384 0.022263 3.006004
0 98.314606 0 -179.991121 -61.872909 89.766776 -0.263021 -1.712507 2.29815 1.869625 0.473742 2.638683 -1.715633 -0.370038 -0.300722 -2.51934 -0.962728 3.149164 0.235611 -0.502575 1.53908 1.586428 0.247712 0.287052 0.054912 -0.15902 -0.256113 0.15178 -0.434077 -0.700428 0.15178 -0.434077 -0.700428 -1.850276 15.38506 6.458237 144.839589 50.825402 159.622984 -5.1931 -13.077637 38.632817 88.190158 3.885963 1.181366 -0.889535 -2.150509 14.809203 50.877841 55.821099 47.522898 2.171278 11.445758 -36.150436 77.691343 -3.099552 10.923052 -3.320357 0.087693 4.095968 -2.490988 0.04352 3.072559
0 98.314606 0 -179.992835 -61.875188 89.72625 -0.228406 -1.712645 2.318786 1.836841 0.467422 2.662614 -1.721791 -0.377134 -0.30559 -2.530047 -0.951277 3.172414 0.261804 -0.53895 1.571606 1.58231 0.249012 0.298966 0.05706 -0.176815 -0.285776 0.158058 -0.482623 -0.781569 0.158058 -0.482623 -0.781569 -2.079221 15.803085 6.836287 144.247788 49.28075 160.116397 -4.122523 -13.161344 38.180005 88.515656 3.73129 1.262722 -0.769527 -2.152455 15.280872 52.087188 54.462183 47.699263 3.096481 12.564785 -34.735212 77.96558 -3.083154 10.976262 -3.350922 0.13584 4.227461 -2.514273 0.078707 3.171452
0 98.314606 0 -179.996045 -61.891208 89.672547 -0.217895 -1.713229 2.351784 1.814251 0.462027 2.689999 -1.730108 -0.384445 -0.31087 -2.575038 -0.945602 3.209778 0.314125 -0.571456 1.601008 1.581354 0.259507 0.307247 0.04632 -0.184124 -0.302552 0.128915 -0.502697 -0.827363 0.128915 -0.502696 -0.827363 -2.201784 16.121574 7.101417 143.614036 47.834405 160.596803 -2.984966 -13.213419 37.679665 88.864689 3.566479 1.389643 -0.579534 -2.209456 15.711151 53.272987 53.198198 47.769114 4.020414 13.512343 -33.240449 78.23949 -3.080729 10.971748 -3.363139 0.127798 4.313123 -2.523404 0.072119 3.23566
0 98.314606 0 179.999138 -61.891191 89.646585 -0.19802 -1.711591 2.360877 1.794933 0.458768 2.716763 -1.735921 -0.396837 -0.316867 -2.582464 -0.944851 3.221225 0.349509 -0.597811 1.632495 1.574875 0.267274 0.313547 0.034306 -0.199239 -0.32093 0.096416 -0.544132 -0.877532 0.096416 -0.544132 -0.877532 -2.085223 16.52034 7.314845 142.745238 46.516143 160.997442 -1.7695 -13.270299 37.083279 89.200805 3.375901 1.545514 -0.578605 -2.250184 16.130963 54.719219 52.018583 47.901849 4.880476 14.316647 -31.716017 78.488183 -3.098037 10.956372 -3.362808 0.155473 4.369694 -2.523369 0.092569 3.278242
0 98.314606 0 179.988691 -61.897084 89.609452 -0.1907 -1.713664 2.39042 1.788064 0.459206 2.740584 -1.752381 -0.405278 -0.32694 -2.599322 -0.934104 3.246677 0.384837 -0.633512 1.665833 1.570802 0.279613 0.316462 0.021896 -0.207585 -0.337416 0.062747 -0.567094 -0.922503 0.062747 -0.567094 -0.922503 -2.174336 16.75877 7.490508 142.242476 45.215959 161.615161 -0.508842 -13.346173 36.407274 89.5086 3.159363 1.721763 -0.406172 -2.267908 16.528689 55.91103 50.768025 47.849602 5.632551 14.9777 -30.173294 78.683032 -3.16252 10.988567 -3.366867 0.158638 4.414367 -2.526451 0.094668 3.311766
0 98.314606 0 179.971057 -61.870491 89.607915 -0.152003 -1.711527 2.39502 1.776359 0.460524 2.755647 -1.761494 -0.415862 -0.332969 -2.578892 -0.915112 3.23594 0.403823 -0.669337 1.704191 1.567614 0.287375 0.324241 0.012265 -0.216301 -0.359013 0.036736 -0.591041 -0.981459 0.036736 -0.591041 -0.981459 -2.072295 17.053687 7.667201 141.592764 44.033415 162.203955 0.766769 -13.458512 35.663623 89.815603 2.926145 1.917675 -0.393542 -2.285254 16.923664 57.24921 49.545912 47.78339 6.282339 15.516353 -28.655592 78.797221 -3.321487 11.114241 -3.35032 0.176229 4.442921 -2.514177 0.107825 3.333272
0 98.314606 0 179.964733 -61.857668 89.584881 -0.1347 -1.718286 2.415766 1.76919 0.464267 2.767067 -1.767322 -0.425235 -0.340331 -2.590448 -0.905287 3.23208 0.422656 -0.695806 1.747709 1.571702 0.287424 0.330164 0.003524 -0.220483 -0.37371 0.01304 -0.602598 -1.021556 0.01304 -0.602598 -1.021556 -2.088443 17.224819 7.839418 141.261014 42.90095 163.048318 2.04934 -13.608526 34.87649 90.11429 2.714726 2.13872 -0.325321 -2.265227 17.220313 58.418015 48.280327 47.623385 6.810069 15.873028 -27.26556 78.793812 -3.530772 11.248776 -3.341827 0.163368 4.450345 -2.507716 0.0982 3.338768
0 98.314606 0 179.94952 -61.806053 89.586054 -0.082052 -1.717161 2.419401 1.762042 0.462941 2.775344 -1.768377 -0.433262 -0.343654 -2.582957 -0.897998 3.21427 0.442448 -0.713076 1.78603 1.586837 0.287007 0.33607 0.008622 -0.224622 -0.38788 0.027171 -0.613826 -1.060341 0.027171 -0.613826 -1.060341 -1.945004 17.386809 8.007117 140.793743 41.874577 163.844322 3.269785 -13.744045 34.148575 90.276084 2.565953 2.281017 -0.37491 -2.225845 17.424968 59.663033 47.048894 47.581779 7.166442 15.958208 -26.129093 78.712469 -3.76202 11.352933 -3.333606 0.162602 4.442506 -2.501541 0.097728 3.332882
